<?xml version="1.0" encoding="utf-8"?>
<!-- Generator: Adobe Illustrator 24.0.1, SVG Export Plug-In . SVG Version: 6.00 Build 0)  -->
<svg version="1.1" id="Layer_1" xmlns="http://www.w3.org/2000/svg" xmlns:xlink="http://www.w3.org/1999/xlink" x="0px" y="0px"
	 viewBox="0 0 1390.4 249.9" style="enable-background:new 0 0 1390.4 249.9;" xml:space="preserve">
<style type="text/css">
	.st0{fill:none;stroke:#364444;stroke-miterlimit:10;}
	.st1{fill:none;stroke:#534E4B;}
	.st2{fill:none;}
	.st3{fill:#534E4B;}
	.st4{enable-background:new    ;}
	.st5{fill:none;stroke:#534E4B;stroke-linecap:round;stroke-linejoin:round;}
</style>
<g id="Сгруппировать_665" transform="translate(11.809 -407.304)">
	<path id="Контур_589" class="st0" d="M1378.3,603l-22.7-20.9l-64.5,54V506.4l-29.7-39.9l-30.1,41l-1.8,105.9l-52.2,0.4
		l-2.9-39.3l-9.9-9l-3.1-26.1l-14.1-3.3l2.1,15.7l-32.7-29.6l-48.9,54.4l-4.3-121.8l-40.2-46.8l-47.9,55.5l3.3,149.4l-11.4,1.4
		v-39.5c0-5.4-1.3-10.7-4.7-12.1s-11.4-3.4-11.4-6.7s0-4.7-5.4-6s-9.4-3.4-10.1-6.7s-1.3-4-8.1-6s-6.7-2-7.4-6.7s-5.5-5.6-8.8-6.3
		s-3.6-6.2-6.5-1.8c-1.9,2.8-11,3.2-12.3,6.5s-0.5,5.6-6.6,7.6s-8.1,3.4-8.7,8.7s-10.7,2.7-14.1,5.4s0.7,5.4-7.4,8.1
		s-9.4,7.4-9.4,7.4v6.1c-0.4-4.4-1.8-8.4-4.6-9.5c-3.4-1.3-11.4-3.4-11.4-6.7s0-4.7-5.4-6s-9.4-3.4-10.1-6.7s-1.3-4-8.1-6
		s-6.6-0.7-7.3-5.4s-3.5-5.8-6.9-6.5s-5.6-3.3-6.5-3.3c-1.2,0-2.9,1.6-5.1,2.5c-4.2,1.8-8.3,3.7-9.2,5.9c-1.3,3.4-0.7,4-6.7,6
		s-8.1,3.4-8.7,8.7s-10.7,2.7-14.1,5.4s0.7,5.4-7.4,8.1s-9.4,7.4-9.4,7.4v77.8l-11.4,0.9l0.4-23.9l5.8-0.7l-18.9-31.5l-26.8-0.7
		l0.4-37.3l-55.8-41l-58.4,40.2l-0.4,38.1l-13.1,0.7L533,612.2l4.4,0.4v29.8l-11.2-6.4l0-75.8l9.4-12.7v-15.9h-9v6.5l-4-0.4v-6.5
		h-8.3v6.5h-4.7v-6.9l-8-0.4v7.2l-5.3-0.3l0.6-93.7L448.8,413l-50.3,29.5l0.7,108.4l-34.8,25l6.9,1.1l-0.1,8.1l-79.1,0.7l-1.6-55.1
		l-70.3-63.1l-70.7,63.1l1,28.7h-14v4.3l2.9,0.1V580l11.7,0.2l0.5,16l-11.6-0.4l-25,44.9v14.1l-21.3,1v-20.1l-20.6-0.3l-1.5-30.1
		l-31-63.1L8,603.1l0.1,21.5l-19.6,13.3 M143.3,577.8h-1.8v-13h2.2L143.3,577.8z M145.5,577.8v-13l1.9-0.1l0.3,13.1L145.5,577.8z
		 M74.6,656.7l-0.8-11.2h3l0.7,11.1L74.6,656.7z M81.3,656.4l-0.2-12l5.1-0.4l0.2,12.1L81.3,656.4z M299.4,605.6l-6.8,0l-0.4-13.1
		l7.7-0.6L299.4,605.6z M310.9,605.6l-6.6,0v-13.3l6.9-0.4L310.9,605.6z M316.6,605.5v-13.6l6.1,0.4l0.3,13.3L316.6,605.5z
		 M335.1,605.5l-6.7,0l-0.6-13.6l7.2,0.4L335.1,605.5z M346,605.4l-5.9,0v-13.5h6.1L346,605.4z M353.4,605.4l-0.6-14.2l5.4,0.7
		l0.5,13.5L353.4,605.4z M371,605.3l-6.2,0v-14.9l6.4,0.3L371,605.3z M1178.7,632.5l-0.9-12.3l4.6,0.3l0.3,12.1L1178.7,632.5z
		 M1194.7,632.7l-6.7-0.1l-0.5-12.5l7.2,0.4L1194.7,632.7z M1205.6,632.9l-5.9-0.1v-12.7h6.2L1205.6,632.9z M1213,633l-0.6-13.6
		l5.4,0.7l0.5,13L1213,633z M1229.1,633.2l-4.8-0.1v-14.5l5.1,0.3L1229.1,633.2z"/>
	<path id="Контур_598" class="st1" d="M412.4,631.5c-1.1-0.9-2.6-0.7-3.5,0.3l0,0l-5,6c-0.8,0.9-0.8,2.3,0,3.2l5,6
		c0.8,1.1,2.4,1.3,3.5,0.5c1.1-0.8,1.3-2.4,0.5-3.5c0-0.1-0.1-0.1-0.2-0.2l0,0l-3.7-4.4l3.7-4.4
		C413.6,633.9,413.5,632.4,412.4,631.5z M400.3,630.9c-1.4,0-2.5,1.1-2.5,2.5l0,0v12.1c0.1,1.4,1.3,2.4,2.6,2.4
		c1.3-0.1,2.3-1.1,2.4-2.4v-12.1C402.8,632,401.7,630.9,400.3,630.9L400.3,630.9z M444.1,635.9c1.4-0.1,2.4-1.3,2.4-2.6
		c-0.1-1.3-1.1-2.3-2.4-2.4h-10.6c-1.4,0-2.5,1.1-2.5,2.5l0,0v4.5c0,1.1,0.7,2.1,1.8,2.4l8.8,2.5v0.2h-8.1c-1.4,0-2.5,1.2-2.4,2.6
		c0,1.3,1,2.3,2.3,2.4h10.7c1.4,0,2.5-1.1,2.5-2.5v-4.5c0-1.1-0.7-2.1-1.8-2.4L436,636v-0.2L444.1,635.9z M427.5,630.9
		c-1.4,0-2.5,1.1-2.5,2.5l0,0v9.6h-5.6v-9.6c0-1.4-1.2-2.5-2.6-2.4c-1.3,0-2.3,1-2.4,2.3c0,0,0,0.1,0,0.1v12.1
		c0,1.4,1.1,2.5,2.5,2.5h10.6c1.4,0,2.5-1.1,2.5-2.5l0,0v-12.1C430,632,428.8,630.9,427.5,630.9L427.5,630.9z M456.6,631.8
		c-0.5-0.6-1.2-0.9-1.9-0.9h-4.5c-1.4,0-2.5,1.1-2.5,2.5l0,0v12.1c0,1.4,1.1,2.5,2.5,2.5h6.2c1.4-0.1,2.4-1.3,2.4-2.6
		c-0.1-1.3-1.1-2.3-2.4-2.4h-3.8v-7.1h0.9l6.2,7.5v2.1c0.1,1.4,1.3,2.4,2.6,2.4c1.3-0.1,2.3-1.1,2.4-2.4v-3c0-0.6-0.2-1.2-0.6-1.6
		L456.6,631.8z M498.8,640.9l-7.6-9.1c-0.5-0.6-1.2-0.9-1.9-0.9h-4.5c-1.4,0-2.5,1.1-2.5,2.5v12.1c0,1.4,1.1,2.5,2.5,2.5h6.2
		c1.4-0.1,2.4-1.3,2.4-2.6c-0.1-1.3-1.1-2.3-2.4-2.4h-3.8v-7.1h0.9l6.2,7.5v2.1c0.1,1.4,1.3,2.4,2.6,2.4c1.3-0.1,2.3-1.1,2.4-2.4v-3
		C499.4,641.9,499.2,641.3,498.8,640.9L498.8,640.9z M479.8,631.1c-0.9-0.4-1.9-0.3-2.7,0.4l-3.7,3.1l-3.7-3.1
		c-1.1-0.9-2.6-0.8-3.5,0.3c-0.4,0.5-0.6,1-0.6,1.6v12.1c0.1,1.4,1.3,2.4,2.6,2.4c1.3-0.1,2.3-1.1,2.4-2.4v-6.7l1.2,1
		c0.9,0.8,2.3,0.8,3.2,0l1.2-1v6.7c0.1,1.4,1.2,2.4,2.6,2.4c1.3-0.1,2.3-1.1,2.4-2.4v-12.1C481.3,632.4,480.7,631.5,479.8,631.1
		L479.8,631.1z M462.3,629.8L462.3,629.8c0,0.1,3.4-1.3,4.1-0.9L466,629c0,0,0.7,0,0.7,0c0,0.3,0.2,0.5,0.4,0.7
		c0.4,0.3,0.4,0.4,0.4,0.4s-0.2,0.1-0.2,0.2c0.2-0.1,0.4-0.1,0.6-0.1c0.2,0,0.4,0,0.5,0.1c0,0,0-0.1-0.3-0.2
		c-0.3-0.1-0.5-0.3-0.7-0.5c-0.2-0.2-0.2-0.5-0.1-0.7c0.1-0.2,0.4-0.4,1.1-0.7c0.8-0.4,1-0.7,1.1-1s0.3-0.7,0.4-0.9
		c0.1-0.2,0.2-0.4,0.4-0.5c0.2-0.1,0.4-0.2,0.7-0.3c0,0-0.4-0.4-0.5-0.5c-0.2-0.2-0.4-0.3-0.6-0.3c-0.3,0-0.6,0.1-0.8,0.3
		c-0.2,0.1-0.6,0.5-0.7,0.6c-0.2,0.1-0.5,0.2-1.2,0.6c-0.6,0.4-3.1,2-3.1,2l0.6,0l-2.9,1.5h0.3l-0.4,0.3
		C461.9,629.9,462.1,629.9,462.3,629.8z"/>
	<g id="g39878" transform="translate(502.542 478.267)">
		<path id="path39880" class="st1" d="M11.7,11.5c0,1.2-1.1,2.2-2.3,2.2s-2.2-1.1-2.2-2.3c0-1.2,1-2.2,2.2-2.2
			C10.7,9.2,11.7,10.2,11.7,11.5z"/>
		<path id="path39882" class="st1" d="M11.7,19.4c0,1.2-1.1,2.2-2.3,2.2s-2.2-1.1-2.2-2.3c0-1.2,1-2.2,2.2-2.2
			C10.7,17.1,11.7,18.1,11.7,19.4z"/>
		<path id="path39884" class="st1" d="M11.7,27.2c0,1.2-1.1,2.2-2.3,2.2c-1.2,0-2.2-1.1-2.2-2.3c0-1.2,1-2.2,2.2-2.2
			C10.7,24.9,11.7,26,11.7,27.2z"/>
		<path id="path39886" class="st1" d="M19.5,19.4c0,1.2-1.1,2.2-2.3,2.2c-1.2,0-2.2-1.1-2.2-2.3c0-1.2,1-2.2,2.2-2.2
			C18.5,17.1,19.5,18.1,19.5,19.4z"/>
		<path id="path39888" class="st1" d="M19.5,11.5c0,1.2-1.1,2.2-2.3,2.2c-1.2,0-2.2-1.1-2.2-2.3c0-1.2,1-2.2,2.2-2.2
			C18.5,9.2,19.5,10.2,19.5,11.5z"/>
		<path id="path39890" class="st1" d="M27.3,19.4c0,1.2-1.1,2.2-2.3,2.2s-2.2-1.1-2.2-2.3c0-1.2,1-2.2,2.2-2.2
			C26.3,17.1,27.3,18.1,27.3,19.4z"/>
		<path id="path39892" class="st1" d="M27.3,11.5c0,1.2-1.1,2.2-2.3,2.2c-1.2,0-2.2-1.1-2.2-2.3c0-1.2,1-2.2,2.2-2.2
			C26.3,9.2,27.3,10.2,27.3,11.5z"/>
		<path id="path39894" class="st1" d="M27.3,27.2c0,1.2-1.1,2.2-2.3,2.2c-1.2,0-2.2-1.1-2.2-2.3c0-1.2,1-2.2,2.2-2.2
			C26.3,24.9,27.3,26,27.3,27.2z"/>
		<path id="path39896" class="st1" d="M19.5,27.2c0,1.2-1.1,2.2-2.3,2.2c-1.2,0-2.2-1.1-2.2-2.3c0-1.2,1-2.2,2.2-2.2
			C18.5,24.9,19.5,26,19.5,27.2z"/>
		<g id="text39898" transform="translate(33.982 8.907)">
			<g id="Сгруппировать_656" transform="translate(0 0.318)">
				<path id="Контур_599" class="st1" d="M10.4,12l4,8.3H11l-3.9-8H2.7v8h-2.9V0h8.6c3.4,0,6.3,1.9,6.3,6
					C14.7,9.3,13,11.3,10.4,12z M8.4,2.9H2.7v6.5h5.7c1.6,0.2,3.1-1,3.3-2.6c0-0.2,0-0.4,0-0.6c0.1-1.7-1.1-3.1-2.8-3.3
					C8.7,2.8,8.6,2.8,8.4,2.9L8.4,2.9z"/>
			</g>
			<g id="Сгруппировать_657" transform="translate(18.512)">
				<path id="Контур_600" class="st1" d="M8.1,20.9c-5.1,0-8.3-4.3-8.3-10.4S3,0,8.1,0c5.1,0,8.3,4.3,8.3,10.4
					S13.2,20.9,8.1,20.9z M8.1,3c-3.4,0-5.3,2.9-5.3,7.4s1.9,7.4,5.3,7.4c3.4,0,5.3-2.9,5.3-7.4S11.5,3,8.1,3L8.1,3z"/>
			</g>
			<g id="Сгруппировать_658" transform="translate(38.257)">
				<path id="Контур_601" class="st1" d="M6.8,20.9c-2.7,0-5.3-1.2-7-3.3l2.1-2.1C3.2,17,5,17.8,7,17.9c2.7,0,4.1-1,4.1-3
					c0-1.6-1.1-2.3-4.4-3.4c-4.1-1.3-6.1-2.3-6.1-6C0.5,2.1,3.3,0,7,0c2.4,0,4.8,1,6.4,2.8l-2.1,2.2c-1.2-1.3-2.8-2-4.6-1.9
					C4.4,3,3.4,4.1,3.4,5.5c0,1.4,0.9,2.1,4.3,3.2c3.9,1.2,6.3,2.5,6.3,6.1C14,18.4,11.8,20.9,6.8,20.9z"/>
			</g>
		</g>
	</g>
	<g id="Сгруппировать_660" transform="translate(194 161.585)">
		<g id="Сгруппировать_659" transform="translate(715 295)">
			<path id="Контур_602" class="st1" d="M15.3,0C6.7,0-0.2,7-0.2,15.5c0,1.7,0.3,3.4,0.8,5.1C1,21.7,2.2,22.4,3.3,22
				c1.1-0.4,1.8-1.6,1.4-2.7c0,0,0,0,0,0c-0.5-1.3-0.7-2.6-0.6-4C4.3,9,9.4,4.1,15.6,4.3c6.2,0.2,11.1,5.3,10.9,11.5
				c-0.2,5.8-4.7,10.6-10.6,10.9c0,0-2.2,0.1-3.2,0.3c-0.5,0.1-0.9,0.2-1.2,0.2c-0.1,0-0.2,0-0.2-0.1c0,0,0-0.1,0-0.1l0.4-1.8l2-9.3
				c0.2-1.2-0.5-2.3-1.6-2.6s-2.3,0.5-2.6,1.6c0,0-4.9,22.6-4.9,22.9c-0.2,1.2,0.5,2.3,1.6,2.6s2.3-0.5,2.6-1.6
				c0-0.2,0.7-3.2,0.7-3.2c0.5-2.3,2.3-4,4.6-4.3c0.5-0.1,2.4-0.2,2.4-0.2c8.6-0.7,15-8.2,14.3-16.8C30.1,6.3,23.4,0,15.3,0L15.3,0z
				"/>
			<path id="Контур_603" class="st1" d="M26.2,35.8c-1.4-0.3-2.8,0.6-3.1,2s0.6,2.8,2,3.1c0,0,0.1,0,0.1,0
				c1.4,0.3,2.8-0.6,3.1-1.9c0,0,0,0,0-0.1C28.5,37.5,27.6,36.1,26.2,35.8z"/>
		</g>
	</g>
	<g id="Сгруппировать_661" transform="translate(355 516.622)">
		<g id="Контур_604">
			<path class="st2" d="M-0.2,24.3l14,8.1l14-8.1V8.1L13.8,0l-14,8.1V24.3z"/>
			<path class="st3" d="M13.8,32.4l14-8.1V8.1L13.8,0l-14,8.1v16.2L13.8,32.4 M13.8,33.5l-0.5-0.3l-14-8.1l-0.5-0.3v-0.6V8.1V7.5
				l0.5-0.3l14-8.1l0.5-0.3l0.5,0.3l14,8.1l0.5,0.3v0.6v16.2v0.6l-0.5,0.3l-14,8.1L13.8,33.5z"/>
		</g>
		<g id="Контур_605" transform="translate(-0.942 -1.884)">
			<path class="st2" d="M13.3,3.8L3.1,9.7c0,0.2,0,0.4,0,0.6l10.2,5.9c0.9-0.6,2-0.6,2.9,0l10.2-5.9c0-0.2,0-0.4,0-0.6L16.2,3.8
				C15.3,4.5,14.2,4.5,13.3,3.8z M27.3,11.9l-10.2,5.9c0.1,1.1-0.5,2.1-1.4,2.5l0,11.7c0.2,0.1,0.3,0.2,0.5,0.3l10.2-5.9
				c-0.1-1.1,0.5-2.1,1.4-2.5V12.1C27.6,12.1,27.5,12,27.3,11.9z M2.2,11.9C2,12,1.9,12.1,1.7,12.2v11.8c1,0.4,1.6,1.4,1.4,2.5
				l10.2,5.9c0.1-0.1,0.3-0.2,0.5-0.3V20.3c-1-0.4-1.6-1.4-1.4-2.5C12.3,17.8,2.2,11.9,2.2,11.9z"/>
			<path class="st3" d="M13.3,5l-8.7,5l8.6,5c0.4-0.2,0.9-0.3,1.4-0.3c0.5,0,1,0.1,1.4,0.3l8.6-5l-8.6-5c-0.4,0.2-0.9,0.3-1.4,0.3
				C14.2,5.3,13.8,5.2,13.3,5 M26.8,13.3l-8.6,5c-0.1,1-0.6,1.9-1.4,2.5l0,9.9l8.6-5c0.1-1,0.6-1.9,1.4-2.5V13.3 M2.7,13.4v10
				c0.8,0.6,1.4,1.5,1.4,2.5l8.6,5v-10c-0.8-0.6-1.4-1.5-1.4-2.5L2.7,13.4 M13.3,3.8c0.4,0.3,0.9,0.5,1.4,0.5s1-0.2,1.4-0.5
				l10.1,5.9c0,0.2,0,0.4,0,0.6l-10.2,5.9c-0.4-0.3-0.9-0.5-1.4-0.5c-0.5,0-1,0.2-1.4,0.5L3.1,10.2c0-0.2,0-0.4,0-0.6L13.3,3.8z
				 M27.3,11.9c0.1,0.1,0.3,0.2,0.5,0.3v11.7c-1,0.4-1.5,1.4-1.4,2.5l-10.2,5.9c-0.1-0.1-0.3-0.2-0.5-0.3l0-11.7
				c1-0.4,1.5-1.4,1.4-2.5L27.3,11.9z M2.2,11.9l10.2,5.9c-0.1,1.1,0.5,2.1,1.4,2.5v11.7c-0.2,0.1-0.3,0.2-0.5,0.3L3.1,26.4
				c0.1-1.1-0.5-2.1-1.4-2.5V12.2C1.9,12.1,2,12,2.2,11.9z"/>
		</g>
	</g>
	<g id="Сгруппировать_662" transform="translate(601 425.463)">
		<path id="Контур_616" class="st1" d="M16.7,0L0,27.7l16.7,9.9l16.7-9.9L16.7,0z"/>
		<path id="Контур_617" class="st1" d="M16.5,40.8l-16.7-9.9l16.7,23.6l16.7-23.6L16.5,40.8z"/>
	</g>
	<g class="st4">
		<path class="st1" d="M118,521.4h-8.9l-2,5.6h-2.9l8.1-21.3h2.5L123,527h-2.9L118,521.4z M109.9,519.1h7.3l-3.6-10L109.9,519.1z"/>
		<path class="st1" d="M131.8,527H129v-21.3h2.8V527z"/>
	</g>
	<g class="st4">
		<path class="st1" d="M1085.7,436.4c-2.2-0.6-3.8-1.4-4.7-2.3c-1-0.9-1.5-2-1.5-3.4c0-1.5,0.6-2.8,1.8-3.8c1.2-1,2.8-1.5,4.7-1.5
			c1.3,0,2.5,0.3,3.5,0.8c1,0.5,1.8,1.2,2.4,2.1c0.6,0.9,0.9,1.9,0.9,2.9h-2.5c0-1.2-0.4-2.1-1.1-2.7c-0.7-0.7-1.8-1-3.1-1
			c-1.2,0-2.2,0.3-2.9,0.8c-0.7,0.6-1,1.3-1,2.3c0,0.8,0.3,1.4,1,2c0.7,0.5,1.8,1,3.4,1.5c1.6,0.4,2.8,0.9,3.7,1.5
			c0.9,0.5,1.6,1.2,2,1.9c0.4,0.7,0.7,1.6,0.7,2.5c0,1.6-0.6,2.8-1.8,3.7c-1.2,0.9-2.8,1.4-4.9,1.4c-1.3,0-2.5-0.3-3.7-0.8
			c-1.1-0.5-2-1.2-2.6-2.1c-0.6-0.9-0.9-1.9-0.9-3h2.5c0,1.2,0.4,2.1,1.3,2.7c0.9,0.7,2,1,3.4,1c1.3,0,2.4-0.3,3.1-0.8
			s1.1-1.3,1.1-2.2s-0.3-1.7-1-2.2C1088.6,437.4,1087.4,436.9,1085.7,436.4z"/>
		<path class="st1" d="M1102,425.8l6.3,15.7l6.3-15.7h3.3V445h-2.5v-7.5l0.2-8.1l-6.3,15.5h-1.9l-6.3-15.5l0.2,8v7.5h-2.5v-19.2
			H1102z"/>
		<path class="st1" d="M1135.8,440h-8l-1.8,5h-2.6l7.3-19.2h2.2l7.3,19.2h-2.6L1135.8,440z M1128.6,437.9h6.5l-3.3-9L1128.6,437.9z"
			/>
		<path class="st1" d="M1152.6,437.2h-4.5v7.8h-2.5v-19.2h6.4c2.2,0,3.8,0.5,5,1.5c1.2,1,1.7,2.4,1.7,4.3c0,1.2-0.3,2.2-1,3.1
			c-0.6,0.9-1.5,1.6-2.7,2l4.5,8.1v0.2h-2.7L1152.6,437.2z M1148.1,435.2h3.9c1.3,0,2.3-0.3,3-1c0.7-0.7,1.1-1.5,1.1-2.6
			c0-1.2-0.4-2.1-1.1-2.7c-0.7-0.6-1.7-1-3.1-1h-3.9V435.2z"/>
		<path class="st1" d="M1177.1,427.9h-6.2V445h-2.5v-17.1h-6.2v-2.1h14.8V427.9z"/>
	</g>
	<g class="st4">
		<path class="st1" d="M1094.1,473.9c-0.2,2-1,3.6-2.2,4.7c-1.3,1.1-2.9,1.7-5,1.7c-2.3,0-4.1-0.8-5.5-2.4c-1.4-1.6-2-3.8-2-6.5
			v-1.8c0-1.8,0.3-3.4,1-4.7c0.6-1.4,1.5-2.4,2.7-3.1c1.2-0.7,2.5-1.1,4.1-1.1c2,0,3.7,0.6,4.9,1.7c1.2,1.1,1.9,2.7,2.1,4.7h-2.5
			c-0.2-1.5-0.7-2.6-1.4-3.3c-0.7-0.7-1.8-1-3.1-1c-1.6,0-2.9,0.6-3.8,1.8c-0.9,1.2-1.4,2.9-1.4,5.1v1.9c0,2.1,0.4,3.7,1.3,5
			s2.1,1.8,3.7,1.8c1.4,0,2.5-0.3,3.2-1c0.8-0.6,1.3-1.7,1.5-3.3H1094.1z"/>
		<path class="st1" d="M1103,480h-2.5v-19.2h2.5V480z"/>
		<path class="st1" d="M1123.2,462.9h-6.2V480h-2.5v-17.1h-6.2v-2.1h14.8V462.9z"/>
		<path class="st1" d="M1134.8,470.4l5-9.6h2.9l-6.6,12v7.2h-2.5v-7.2l-6.6-12h2.9L1134.8,470.4z"/>
	</g>
	<g id="Сгруппировать_664" transform="translate(-494 275)">
		<g id="Сгруппировать_663" transform="translate(629 336)">
			<line id="Линия_49" class="st5" x1="44.5" y1="38" x2="24.3" y2="2.9"/>
			<line id="Линия_50" class="st5" x1="2.9" y1="39.8" x2="43.4" y2="39.8"/>
			<line id="Линия_51" class="st5" x1="22.6" y1="2.9" x2="2.2" y2="38.2"/>
			<path id="Контур_618" class="st5" d="M34.2,32.9l-10.5-5.5l-10.5,5.5"/>
			<line id="Линия_52" class="st5" x1="23.7" y1="14.7" x2="13.2" y2="32.9"/>
			<path id="Контур_619" class="st5" d="M34.2,32.9l-10.5-5.5l-10.5,5.5"/>
			<path id="Контур_620" class="st5" d="M34.2,32.9h-21l10.5-18.2L34.2,32.9z"/>
			<path id="Контур_621" class="st5" d="M46.4,39.5c0,0.9-0.7,1.6-1.6,1.6c-0.9,0-1.6-0.7-1.6-1.6c0-0.9,0.7-1.6,1.6-1.6
				S46.4,38.6,46.4,39.5L46.4,39.5z"/>
			<path id="Контур_622" class="st5" d="M25,1.6c0,0.9-0.7,1.6-1.6,1.6c-0.9,0-1.6-0.7-1.6-1.6c0-0.9,0.7-1.6,1.6-1.6
				C24.3,0,25,0.7,25,1.6z"/>
			<path id="Контур_623" class="st5" d="M2.9,39.5c0,0.9-0.7,1.6-1.6,1.6c-0.9,0-1.6-0.7-1.6-1.6c0-0.9,0.7-1.6,1.6-1.6
				C2.2,38,2.9,38.6,2.9,39.5z"/>
			<line id="Линия_53" class="st5" x1="23.7" y1="14.7" x2="23.7" y2="27.4"/>
		</g>
	</g>
</g>
</svg>
